<?xml version="1.0" encoding="UTF-8" standalone="no"?>
<svg
   xmlns:dc="http://purl.org/dc/elements/1.1/"
   xmlns:cc="http://creativecommons.org/ns#"
   xmlns:rdf="http://www.w3.org/1999/02/22-rdf-syntax-ns#"
   xmlns:svg="http://www.w3.org/2000/svg"
   xmlns="http://www.w3.org/2000/svg"
   xmlns:sodipodi="http://sodipodi.sourceforge.net/DTD/sodipodi-0.dtd"
   xmlns:inkscape="http://www.inkscape.org/namespaces/inkscape"
   width="360"
   height="220"
   viewBox="0 0 360 200"
   id="svg2"
   sodipodi:version="0.32"
   inkscape:version="0.46"
   sodipodi:docname="Widerstand_Zeiger-Model.svg"
   inkscape:output_extension="org.inkscape.output.svg.inkscape"
   version="1.0">
  <metadata
     id="metadata117">
    <rdf:RDF>
      <cc:Work
         rdf:about="">
        <dc:format>image/svg+xml</dc:format>
        <dc:type
           rdf:resource="http://purl.org/dc/dcmitype/StillImage" />
      </cc:Work>
    </rdf:RDF>
  </metadata>
  <defs
     id="defs115">
    <inkscape:perspective
       sodipodi:type="inkscape:persp3d"
       inkscape:vp_x="0 : 100 : 1"
       inkscape:vp_y="0 : 1000 : 0"
       inkscape:vp_z="360 : 100 : 1"
       inkscape:persp3d-origin="180 : 66.666667 : 1"
       id="perspective119" />
  </defs>
  <sodipodi:namedview
     inkscape:window-height="721"
     inkscape:window-width="1024"
     inkscape:pageshadow="2"
     inkscape:pageopacity="0.0"
     guidetolerance="10.0"
     gridtolerance="10.0"
     objecttolerance="10.0"
     borderopacity="1.0"
     bordercolor="#666666"
     pagecolor="#ffffff"
     id="base"
     showgrid="false"
     inkscape:zoom="1.5111111"
     inkscape:cx="184.15204"
     inkscape:cy="100"
     inkscape:window-x="-4"
     inkscape:window-y="-4"
     inkscape:current-layer="svg2" />
  <title
     id="title4">Produce by DWG to SVG Converter MX</title>
  <desc
     id="desc6">Produce by DWG to SVG Converter MX</desc>
  <path
     d="M 85.31,168.69 L 334.6,168.69"
     id="path32"
     style="fill:none;stroke:#000000;stroke-width:1;stroke-miterlimit:4;stroke-dasharray:none" />
  <path
     d="M 90.51,173.88 L 90.51,12.88"
     id="path34"
     style="fill:none;stroke:#000000;stroke-width:1;stroke-miterlimit:4;stroke-dasharray:none" />
  <path
     d="M 90.51,168.69 L 298.24,168.69"
     id="path36"
     style="fill:none;stroke:#000000;stroke-width:2;stroke-miterlimit:4;stroke-dasharray:none" />
  <path
     d="M 298.24,168.69 L 285.26,166.09"
     id="path38"
     style="fill:none;stroke:#000000;stroke-width:2;stroke-miterlimit:4;stroke-dasharray:none" />
  <path
     d="M 285.26,171.28 L 298.24,168.69"
     id="path40"
     style="fill:none;stroke:#000000;stroke-width:2;stroke-miterlimit:4;stroke-dasharray:none" />
  <path
     d="M 298.24,168.69 L 298.24,23.27"
     id="path42"
     style="fill:none;stroke:#000000;stroke-width:2;stroke-miterlimit:4;stroke-dasharray:none" />
  <path
     d="M 298.24,23.27 L 295.65,36.25"
     id="path44"
     style="fill:none;stroke:#000000;stroke-width:2;stroke-miterlimit:4;stroke-dasharray:none" />
  <path
     d="M 300.84,36.25 L 298.24,23.27"
     id="path46"
     style="fill:none;stroke:#000000;stroke-width:2;stroke-miterlimit:4;stroke-dasharray:none" />
  <path
     d="M 296.12,24.76 L 90.51,168.69"
     id="path48"
     style="fill:none;stroke:#000000;stroke-width:2;stroke-miterlimit:4;stroke-dasharray:none" />
  <path
     d="M 298.24,23.27 L 286.12,28.59"
     id="path50"
     style="fill:none;stroke:#000000;stroke-width:2;stroke-miterlimit:4;stroke-dasharray:none" />
  <path
     d="M 298.24,23.27 L 289.1,32.84"
     id="path52"
     style="fill:none;stroke:#000000;stroke-width:2;stroke-miterlimit:4;stroke-dasharray:none" />
  <path
     d="M 13.27,10.28 L 13.27,20.65 L 13.27,21.97 L 12.71,23.94 L 12.14,24.58 L 11.58,25.22 L 10.12,25.86 L 9.22,25.86 L 8.7,25.86 L 7.94,25.67 L 7.7,25.49 L 7.45,25.3 L 7.2,24.92 L 7.2,24.73 L 7.2,24.53 L 7.34,24.19 L 7.48,24.05 L 7.61,23.91 L 7.94,23.77 L 8.12,23.77 L 8.27,23.77 L 8.57,23.84 L 8.72,23.92 L 8.81,23.96 L 9.18,24.24 L 9.45,24.48 L 9.73,24.73 L 10.18,24.97 L 10.37,24.97 L 10.5,24.97 L 10.77,24.87 L 10.89,24.76 L 11.02,24.66 L 11.21,24.31 L 11.27,24.07 L 11.34,23.82 L 11.4,22.76 L 11.4,21.95 L 11.4,14.62 L 11.4,13.77 L 11.35,12.67 L 11.3,12.43 L 11.26,12.25 L 11.13,11.99 L 11.05,11.92 L 10.96,11.85 L 10.73,11.78 L 10.59,11.78 L 10.43,11.78 L 10.05,11.86 L 9.82,11.95 L 9.67,11.54 L 12.78,10.28 L 13.27,10.28 z"
     id="path54"
     style="fill:#000000;fill-rule:evenodd;stroke-width:2;stroke-miterlimit:4;stroke-dasharray:none" />
  <path
     d="M 12.3,4.9 L 12.54,4.9 L 12.95,5.07 L 13.12,5.24 L 13.29,5.41 L 13.46,5.82 L 13.46,6.06 L 13.46,6.3 L 13.29,6.7 L 13.12,6.87 L 12.95,7.04 L 12.54,7.21 L 12.3,7.21 L 12.06,7.21 L 11.65,7.04 L 11.49,6.87 L 11.32,6.7 L 11.15,6.3 L 11.15,6.06 L 11.15,5.82 L 11.32,5.41 L 11.49,5.24 L 11.65,5.07 L 12.06,4.9 L 12.3,4.9 L 12.3,4.9 z"
     id="path56"
     style="fill:#000000;fill-rule:evenodd;stroke-width:2;stroke-miterlimit:4;stroke-dasharray:none" />
  <path
     d="M 28.21,20.46 L 28.21,20.89 L 21.69,20.89 L 21.69,20.46 L 22.23,20.46 L 22.7,20.46 L 23.39,20.19 L 23.6,19.91 L 23.74,19.74 L 23.87,18.87 L 23.87,18.19 L 23.87,8.35 L 23.87,7.77 L 23.8,7.01 L 23.73,6.82 L 23.67,6.68 L 23.44,6.44 L 23.27,6.34 L 23.02,6.2 L 22.5,6.07 L 22.23,6.07 L 21.69,6.07 L 21.69,5.65 L 28.21,5.65 L 28.21,6.07 L 27.66,6.07 L 27.2,6.07 L 26.52,6.34 L 26.31,6.62 L 26.17,6.8 L 26.03,7.66 L 26.03,8.35 L 26.03,18.19 L 26.03,18.76 L 26.1,19.53 L 26.17,19.71 L 26.23,19.85 L 26.46,20.09 L 26.64,20.19 L 26.88,20.33 L 27.39,20.46 L 27.66,20.46 L 28.21,20.46 z"
     id="path58"
     style="fill:#000000;fill-rule:evenodd;stroke-width:2;stroke-miterlimit:4;stroke-dasharray:none" />
  <path
     d="M 32.58,12.48 L 33.14,11.92 L 33.8,11.27 L 33.91,11.18 L 34.16,10.97 L 34.7,10.64 L 35,10.52 L 35.29,10.4 L 35.87,10.28 L 36.16,10.28 L 36.64,10.28 L 37.47,10.56 L 37.82,10.84 L 38.17,11.13 L 38.64,11.94 L 38.76,12.48 L 39.34,11.8 L 40.31,10.91 L 40.71,10.7 L 41.11,10.49 L 41.93,10.28 L 42.35,10.28 L 42.76,10.28 L 43.49,10.49 L 43.8,10.7 L 44.12,10.91 L 44.62,11.6 L 44.81,12.08 L 44.93,12.41 L 45.05,13.43 L 45.05,14.13 L 45.05,18.56 L 45.05,19.04 L 45.13,19.71 L 45.2,19.89 L 45.25,20.01 L 45.46,20.22 L 45.61,20.31 L 45.76,20.39 L 46.26,20.48 L 46.6,20.48 L 46.6,20.89 L 41.51,20.89 L 41.51,20.48 L 41.73,20.48 L 42.06,20.48 L 42.58,20.35 L 42.76,20.22 L 42.89,20.13 L 43.08,19.85 L 43.14,19.65 L 43.16,19.55 L 43.18,19.01 L 43.18,18.56 L 43.18,14.13 L 43.18,13.5 L 43.03,12.61 L 42.88,12.36 L 42.66,12 L 41.96,11.64 L 41.48,11.64 L 41.18,11.64 L 40.59,11.79 L 40.29,11.93 L 39.99,12.08 L 39.26,12.64 L 38.84,13.04 L 38.81,13.17 L 38.83,13.65 L 38.83,18.56 L 38.83,19.09 L 38.89,19.74 L 38.95,19.87 L 39.01,20 L 39.23,20.22 L 39.39,20.31 L 39.55,20.39 L 40.11,20.48 L 40.5,20.48 L 40.5,20.89 L 35.29,20.89 L 35.29,20.48 L 35.72,20.48 L 36.3,20.38 L 36.46,20.28 L 36.62,20.18 L 36.84,19.87 L 36.9,19.67 L 36.93,19.58 L 36.96,19.02 L 36.96,18.56 L 36.96,14.13 L 36.96,13.5 L 36.77,12.59 L 36.59,12.32 L 36.34,11.95 L 35.65,11.59 L 35.21,11.59 L 34.91,11.59 L 34.31,11.75 L 34.01,11.92 L 33.55,12.17 L 32.83,12.73 L 32.58,13.04 L 32.58,18.56 L 32.58,19.07 L 32.65,19.72 L 32.72,19.87 L 32.79,20.03 L 32.99,20.25 L 33.13,20.33 L 33.27,20.4 L 33.83,20.48 L 34.25,20.48 L 34.25,20.89 L 29.15,20.89 L 29.15,20.48 L 29.5,20.48 L 29.99,20.4 L 30.13,20.33 L 30.27,20.25 L 30.49,20.01 L 30.56,19.85 L 30.63,19.68 L 30.7,19.04 L 30.7,18.56 L 30.7,14.62 L 30.7,13.77 L 30.65,12.68 L 30.6,12.43 L 30.56,12.25 L 30.44,11.99 L 30.36,11.92 L 30.27,11.85 L 30.04,11.78 L 29.9,11.78 L 29.74,11.78 L 29.36,11.86 L 29.14,11.95 L 28.97,11.54 L 32.09,10.28 L 32.58,10.28 L 32.58,12.48 z"
     id="path60"
     style="fill:#000000;fill-rule:evenodd;stroke-width:2;stroke-miterlimit:4;stroke-dasharray:none" />
  <path
     d="M 59.6,25.39 L 59.6,25.81 L 58.76,25.39 L 57.34,24.39 L 56.77,23.81 L 55.96,23 L 54.71,21.07 L 54.27,19.97 L 53.84,18.86 L 53.4,16.56 L 53.4,15.37 L 53.4,13.62 L 54.26,10.45 L 55.12,9.01 L 55.98,7.57 L 58.22,5.52 L 59.6,4.9 L 59.6,5.37 L 58.91,5.75 L 57.77,6.8 L 57.32,7.46 L 56.88,8.12 L 56.21,9.8 L 55.99,10.82 L 55.77,11.84 L 55.55,13.96 L 55.55,15.07 L 55.55,16.27 L 55.74,18.46 L 55.92,19.44 L 56.07,20.22 L 56.42,21.47 L 56.63,21.94 L 56.84,22.4 L 57.4,23.31 L 57.76,23.74 L 58.11,24.17 L 59.03,25 L 59.6,25.39 L 59.6,25.39 z"
     id="path62"
     style="fill:#000000;fill-rule:evenodd;stroke-width:2;stroke-miterlimit:4;stroke-dasharray:none" />
  <path
     d="M 65.37,5.65 L 75.95,5.65 L 75.95,6.07 L 64.62,20.15 L 66.39,20.15 L 67.82,20.15 L 69.85,20.01 L 70.43,19.87 L 71.02,19.73 L 72,19.24 L 72.39,18.89 L 72.78,18.54 L 73.44,17.55 L 73.7,16.91 L 74.12,16.91 L 72.8,20.89 L 61.83,20.89 L 61.83,20.56 L 73.16,6.47 L 70,6.47 L 68.96,6.47 L 67.51,6.57 L 67.08,6.66 L 66.66,6.75 L 65.94,7.13 L 65.65,7.41 L 65.35,7.7 L 64.84,8.55 L 64.64,9.13 L 64.23,9.13 L 65.37,5.65 z"
     id="path64"
     style="fill:#000000;fill-rule:evenodd;stroke-width:2;stroke-miterlimit:4;stroke-dasharray:none" />
  <path
     d="M 61.88,25.87 L 75.95,25.87"
     id="path66"
     style="fill:none;stroke:#000000;stroke-width:1;stroke-miterlimit:4;stroke-dasharray:none" />
  <path
     d="M 76.51,5.37 L 76.51,4.9 L 77.36,5.32 L 78.79,6.32 L 79.36,6.89 L 80.16,7.71 L 81.4,9.64 L 81.84,10.74 L 82.28,11.85 L 82.72,14.15 L 82.72,15.35 L 82.72,17.09 L 81.86,20.27 L 81,21.7 L 80.15,23.14 L 77.9,25.2 L 76.51,25.81 L 76.51,25.39 L 77.2,25 L 78.35,23.96 L 78.8,23.3 L 79.25,22.63 L 79.91,20.95 L 80.13,19.93 L 80.35,18.91 L 80.57,16.79 L 80.57,15.68 L 80.57,14.48 L 80.38,12.29 L 80.19,11.3 L 80.05,10.53 L 79.7,9.29 L 79.49,8.82 L 79.27,8.35 L 78.71,7.45 L 78.36,7.02 L 78.01,6.59 L 77.09,5.76 L 76.51,5.37 L 76.51,5.37 z"
     id="path68"
     style="fill:#000000;fill-rule:evenodd;stroke-width:1;stroke-miterlimit:4;stroke-dasharray:none" />
  <path
     d="M 297.83,191.67 L 293.75,191.67 L 288.58,184.54 L 288.3,184.56 L 287.84,184.57 L 287.66,184.57 L 287.58,184.57 L 287.43,184.56 L 287.35,184.56 L 287.26,184.56 L 287.09,184.55 L 287,184.54 L 287,188.97 L 287,189.69 L 287.16,190.58 L 287.31,190.76 L 287.53,191 L 288.16,191.25 L 288.59,191.25 L 289.18,191.25 L 289.18,191.67 L 282.66,191.67 L 282.66,191.25 L 283.23,191.25 L 283.72,191.25 L 284.41,190.94 L 284.61,190.62 L 284.73,190.45 L 284.85,189.62 L 284.85,188.97 L 284.85,179.13 L 284.85,178.41 L 284.69,177.52 L 284.53,177.35 L 284.32,177.1 L 283.67,176.86 L 283.23,176.86 L 282.66,176.86 L 282.66,176.43 L 288.21,176.43 L 289.42,176.43 L 291.2,176.61 L 291.78,176.79 L 292.35,176.97 L 293.33,177.62 L 293.73,178.09 L 294.13,178.57 L 294.53,179.7 L 294.53,180.36 L 294.53,181.06 L 294.08,182.28 L 293.62,182.79 L 293.16,183.31 L 291.75,184.04 L 290.79,184.25 L 293.95,188.62 L 294.49,189.37 L 295.42,190.37 L 295.8,190.62 L 296.19,190.87 L 297.2,191.18 L 297.83,191.25 L 297.83,191.67 z M 287,183.84 L 287.11,183.84 L 287.29,183.85 L 287.37,183.85 L 287.44,183.85 L 287.57,183.85 L 287.62,183.85 L 288.7,183.85 L 290.32,183.38 L 290.87,182.91 L 291.41,182.44 L 291.96,181.24 L 291.96,180.51 L 291.96,179.79 L 291.52,178.63 L 291.08,178.19 L 290.64,177.74 L 289.47,177.29 L 288.74,177.29 L 288.42,177.29 L 287.55,177.39 L 287,177.5 L 287,183.84 z"
     id="path70"
     style="fill:#000000;fill-rule:evenodd;stroke-width:1;stroke-miterlimit:4;stroke-dasharray:none" />
  <path
     d="M 300.05,185.26 L 300.05,186.41 L 300.61,188.2 L 301.17,188.86 L 301.73,189.51 L 303.06,190.16 L 303.82,190.16 L 304.32,190.16 L 305.21,189.88 L 305.58,189.61 L 305.96,189.33 L 306.58,188.37 L 306.84,187.7 L 307.18,187.92 L 307.06,188.69 L 306.38,190.1 L 305.81,190.72 L 305.24,191.35 L 303.82,191.98 L 302.96,191.98 L 302.03,191.98 L 300.45,191.26 L 299.78,190.54 L 299.12,189.82 L 298.46,187.88 L 298.46,186.66 L 298.46,185.34 L 299.14,183.28 L 299.82,182.54 L 300.5,181.81 L 302.2,181.07 L 303.22,181.07 L 304.09,181.07 L 305.51,181.64 L 306.07,182.21 L 306.62,182.78 L 307.18,184.31 L 307.18,185.26 L 300.05,185.26 z M 300.05,184.61 L 304.84,184.61 L 304.81,184.11 L 304.69,183.41 L 304.6,183.21 L 304.46,182.9 L 304.04,182.4 L 303.76,182.22 L 303.48,182.04 L 302.9,181.86 L 302.59,181.86 L 302.13,181.86 L 301.29,182.22 L 300.92,182.59 L 300.55,182.95 L 300.12,183.96 L 300.05,184.61 L 300.05,184.61 z"
     id="path72"
     style="fill:#000000;fill-rule:evenodd;stroke-width:1;stroke-miterlimit:4;stroke-dasharray:none" />
  <path
     d="M 320.73,196.18 L 320.73,196.6 L 319.88,196.17 L 318.47,195.17 L 317.9,194.6 L 317.09,193.78 L 315.84,191.86 L 315.4,190.75 L 314.96,189.65 L 314.53,187.35 L 314.53,186.15 L 314.53,184.41 L 315.39,181.23 L 316.25,179.8 L 317.11,178.36 L 319.35,176.3 L 320.73,175.69 L 320.73,176.15 L 320.04,176.54 L 318.9,177.58 L 318.45,178.25 L 318.01,178.91 L 317.34,180.59 L 317.12,181.61 L 316.9,182.62 L 316.68,184.75 L 316.68,185.86 L 316.68,187.06 L 316.87,189.25 L 317.05,190.23 L 317.2,191.01 L 317.55,192.25 L 317.76,192.72 L 317.97,193.19 L 318.53,194.09 L 318.89,194.53 L 319.24,194.96 L 320.16,195.79 L 320.73,196.18 L 320.73,196.18 z"
     id="path74"
     style="fill:#000000;fill-rule:evenodd;stroke-width:1;stroke-miterlimit:4;stroke-dasharray:none" />
  <path
     d="M 324.73,176.43 L 335.32,176.43 L 335.32,176.85 L 323.99,190.94 L 325.76,190.94 L 327.19,190.94 L 329.21,190.8 L 329.8,190.66 L 330.39,190.52 L 331.37,190.03 L 331.76,189.68 L 332.15,189.33 L 332.81,188.34 L 333.07,187.7 L 333.49,187.7 L 332.17,191.67 L 321.2,191.67 L 321.2,191.34 L 332.52,177.26 L 329.36,177.26 L 328.33,177.26 L 326.87,177.35 L 326.45,177.45 L 326.03,177.54 L 325.31,177.92 L 325.01,178.2 L 324.71,178.48 L 324.21,179.34 L 324,179.91 L 323.6,179.91 L 324.73,176.43 z"
     id="path76"
     style="fill:#000000;fill-rule:evenodd;stroke-width:1;stroke-miterlimit:4;stroke-dasharray:none" />
  <path
     d="M 321.25,196.65 L 335.32,196.65"
     id="path78"
     style="fill:none;stroke:#000000;stroke-width:1;stroke-miterlimit:4;stroke-dasharray:none" />
  <path
     d="M 335.88,176.15 L 335.88,175.69 L 336.73,176.11 L 338.15,177.1 L 338.72,177.68 L 339.53,178.5 L 340.77,180.42 L 341.21,181.53 L 341.65,182.63 L 342.08,184.93 L 342.08,186.13 L 342.08,187.87 L 341.23,191.05 L 340.37,192.49 L 339.51,193.93 L 337.27,195.98 L 335.88,196.6 L 335.88,196.18 L 336.57,195.79 L 337.72,194.74 L 338.16,194.08 L 338.61,193.42 L 339.28,191.74 L 339.5,190.72 L 339.71,189.7 L 339.93,187.57 L 339.93,186.46 L 339.93,185.27 L 339.75,183.08 L 339.56,182.09 L 339.42,181.31 L 339.07,180.07 L 338.85,179.61 L 338.64,179.14 L 338.08,178.24 L 337.73,177.81 L 337.38,177.37 L 336.45,176.55 L 335.88,176.15 L 335.88,176.15 z"
     id="path80"
     style="fill:#000000;fill-rule:evenodd;stroke-width:1;stroke-miterlimit:4;stroke-dasharray:none" />
  <path
     d="M 193.51,194.65 L 191.08,187.24 L 190.66,187.25 L 189.8,187.17 L 189.36,187.08 L 187.99,191.91 L 187.86,192.32 L 187.73,193.02 L 187.73,193.3 L 187.73,193.52 L 187.89,193.86 L 188.05,193.98 L 188.18,194.07 L 188.85,194.21 L 189.4,194.25 L 189.3,194.65 L 183.47,194.65 L 183.59,194.25 L 184,194.23 L 184.57,194.15 L 184.71,194.08 L 184.94,193.98 L 185.28,193.72 L 185.39,193.56 L 185.57,193.29 L 185.94,192.36 L 186.14,191.69 L 188.79,182.47 L 188.92,182.01 L 189.06,181.3 L 189.06,181.05 L 189.06,180.79 L 188.85,180.35 L 188.64,180.17 L 188.43,179.99 L 187.82,179.82 L 187.43,179.82 L 187.56,179.42 L 192.54,179.42 L 193.79,179.42 L 195.59,179.89 L 196.14,180.36 L 196.69,180.83 L 197.25,182.07 L 197.25,182.84 L 197.25,183.57 L 196.68,184.92 L 196.11,185.52 L 195.55,186.13 L 194,186.9 L 193.01,187.07 L 194.47,191.53 L 194.74,192.36 L 195.28,193.43 L 195.55,193.68 L 195.82,193.93 L 196.69,194.21 L 197.3,194.25 L 197.17,194.65 L 193.51,194.65 z M 189.56,186.44 L 189.92,186.49 L 190.55,186.54 L 190.83,186.54 L 191.79,186.54 L 193.3,186 L 193.86,185.47 L 194.41,184.93 L 194.97,183.59 L 194.97,182.79 L 194.97,182.17 L 194.62,181.21 L 194.27,180.88 L 193.92,180.54 L 192.87,180.21 L 192.17,180.21 L 191.99,180.21 L 191.57,180.26 L 191.32,180.3 L 189.56,186.44 z"
     id="path82"
     style="fill:#000000;fill-rule:evenodd;stroke-width:1;stroke-miterlimit:4;stroke-dasharray:none" />
  <path
     d="M 314.7,88.19 L 314.7,98.56 L 314.7,99.88 L 314.14,101.84 L 313.57,102.49 L 313.01,103.13 L 311.55,103.77 L 310.65,103.77 L 310.13,103.77 L 309.37,103.58 L 309.13,103.4 L 308.88,103.21 L 308.63,102.83 L 308.63,102.63 L 308.63,102.44 L 308.77,102.1 L 308.91,101.96 L 309.04,101.82 L 309.37,101.68 L 309.55,101.68 L 309.7,101.68 L 310,101.75 L 310.15,101.82 L 310.24,101.86 L 310.61,102.15 L 310.88,102.39 L 311.16,102.63 L 311.61,102.88 L 311.8,102.88 L 311.93,102.88 L 312.19,102.77 L 312.32,102.67 L 312.45,102.57 L 312.64,102.22 L 312.7,101.97 L 312.76,101.73 L 312.83,100.67 L 312.83,99.85 L 312.83,92.52 L 312.83,91.67 L 312.78,90.58 L 312.73,90.34 L 312.69,90.15 L 312.56,89.9 L 312.48,89.83 L 312.39,89.76 L 312.16,89.69 L 312.02,89.69 L 311.86,89.69 L 311.48,89.77 L 311.25,89.86 L 311.1,89.45 L 314.21,88.19 L 314.7,88.19 z"
     id="path84"
     style="fill:#000000;fill-rule:evenodd;stroke-width:2;stroke-miterlimit:4;stroke-dasharray:none" />
  <path
     d="M 313.73,82.81 L 313.97,82.81 L 314.38,82.98 L 314.55,83.14 L 314.72,83.31 L 314.89,83.72 L 314.89,83.97 L 314.89,84.2 L 314.72,84.61 L 314.55,84.78 L 314.38,84.95 L 313.97,85.11 L 313.73,85.11 L 313.49,85.11 L 313.08,84.95 L 312.91,84.78 L 312.75,84.61 L 312.58,84.2 L 312.58,83.97 L 312.58,83.72 L 312.75,83.31 L 312.91,83.14 L 313.08,82.98 L 313.49,82.81 L 313.73,82.81 L 313.73,82.81 z"
     id="path86"
     style="fill:#000000;fill-rule:evenodd;stroke-width:2;stroke-miterlimit:4;stroke-dasharray:none" />
  <path
     d="M 336.21,83.56 L 341.36,83.56 L 341.24,83.96 L 340.69,84.04 L 339.74,84.37 L 339.33,84.62 L 338.93,84.87 L 337.82,85.87 L 337.11,86.62 L 333.17,90.64 L 334.27,94.74 L 334.35,95.04 L 334.64,95.94 L 334.85,96.56 L 334.99,96.95 L 335.26,97.51 L 335.39,97.68 L 335.53,97.84 L 335.87,98.09 L 336.07,98.18 L 336.28,98.27 L 336.9,98.37 L 337.31,98.39 L 337.19,98.79 L 331.21,98.79 L 331.33,98.39 L 331.79,98.37 L 332.46,98.2 L 332.66,98.04 L 332.81,97.92 L 332.96,97.63 L 332.96,97.45 L 332.96,97.29 L 332.82,96.6 L 332.67,96.06 L 331.59,92.22 L 328.03,95.84 L 327.5,96.37 L 326.88,97.08 L 326.78,97.25 L 326.72,97.35 L 326.66,97.55 L 326.66,97.64 L 326.66,97.81 L 326.82,98.09 L 326.99,98.2 L 327.07,98.24 L 327.55,98.34 L 327.95,98.39 L 327.84,98.79 L 322.76,98.79 L 322.89,98.37 L 323.36,98.33 L 324.15,98.11 L 324.45,97.93 L 324.9,97.67 L 326.12,96.62 L 326.9,95.84 L 331.34,91.39 L 330.12,86.99 L 329.84,85.98 L 329.36,84.73 L 329.16,84.5 L 328.95,84.26 L 328.24,83.99 L 327.72,83.96 L 327.84,83.56 L 333.29,83.56 L 333.16,83.96 L 332.78,83.96 L 332.27,84.01 L 332.14,84.06 L 332.01,84.1 L 331.81,84.25 L 331.74,84.35 L 331.67,84.45 L 331.6,84.67 L 331.6,84.8 L 331.6,84.93 L 331.73,85.56 L 331.87,86.06 L 332.9,89.82 L 335.29,87.43 L 336,86.72 L 336.97,85.58 L 337.24,85.15 L 337.33,85 L 337.43,84.73 L 337.43,84.61 L 337.43,84.48 L 337.32,84.27 L 337.21,84.2 L 337.06,84.1 L 336.5,83.98 L 336.08,83.96 L 336.21,83.56 z"
     id="path88"
     style="fill:#000000;fill-rule:evenodd;stroke-width:2;stroke-miterlimit:4;stroke-dasharray:none" />
  <path
     d="M 187.52,65.37 L 198.1,65.37 L 198.1,65.79 L 186.77,79.88 L 188.55,79.88 L 189.98,79.88 L 192,79.74 L 192.59,79.6 L 193.18,79.45 L 194.16,78.96 L 194.55,78.62 L 194.94,78.27 L 195.59,77.27 L 195.86,76.63 L 196.28,76.63 L 194.95,80.61 L 183.98,80.61 L 183.98,80.28 L 195.31,66.2 L 192.15,66.2 L 191.12,66.2 L 189.66,66.29 L 189.24,66.38 L 188.82,66.48 L 188.1,66.85 L 187.8,67.14 L 187.5,67.42 L 187,68.28 L 186.79,68.85 L 186.39,68.85 L 187.52,65.37 z"
     id="path90"
     style="fill:#000000;fill-rule:evenodd;stroke-width:2;stroke-miterlimit:4;stroke-dasharray:none" />
  <path
     d="M 184.04,85.59 L 198.1,85.59"
     id="path92"
     style="fill:none;stroke:#000000;stroke-width:1;stroke-miterlimit:4;stroke-dasharray:none" />
  <path
     d="M 334.6,168.69 L 319.02,163.49"
     id="path94"
     style="fill:none;stroke:#000000;stroke-width:1;stroke-miterlimit:4;stroke-dasharray:none" />
  <path
     d="M 334.6,168.69 L 319.02,173.88"
     id="path96"
     style="fill:none;stroke:#000000;stroke-width:1;stroke-miterlimit:4;stroke-dasharray:none" />
  <path
     d="M 90.51,10.29 L 85.31,25.87"
     id="path98"
     style="fill:none;stroke:#000000;stroke-width:1;stroke-miterlimit:4;stroke-dasharray:none" />
  <path
     d="M 95.7,25.87 L 90.51,10.29"
     id="path100"
     style="fill:none;stroke:#000000;stroke-width:1;stroke-miterlimit:4;stroke-dasharray:none" />
  <path
     d="M 154.32,124 L 157.51,137.62"
     id="path102"
     style="fill:none;stroke:#000000;stroke-width:1;stroke-miterlimit:4;stroke-dasharray:none" />
  <path
     d="M 163.89,133.15 L 154.32,124"
     id="path104"
     style="fill:none;stroke:#000000;stroke-width:1;stroke-miterlimit:4;stroke-dasharray:none" />
  <path
     d="M 147.96,157.99 L 151.84,150.88 L 152.31,150.02 L 153.47,148.8 L 154.16,148.43 L 154.85,148.07 L 156.43,147.7 L 157.32,147.7 L 158.6,147.7 L 160.48,148.44 L 161.07,149.18 L 161.67,149.92 L 161.67,151.76 L 161.07,152.86 L 160.66,153.6 L 159.34,155.03 L 158.41,155.73 L 157.49,156.43 L 155.51,157.46 L 154.46,157.8 L 153.41,158.13 L 150.91,158.54 L 149.47,158.61 L 146.93,163.25 L 145.08,163.25 L 147.62,158.61 L 146.37,158.54 L 144.44,158.13 L 143.76,157.79 L 143.08,157.45 L 142.24,156.43 L 142.07,155.73 L 141.91,155.04 L 142.14,153.62 L 142.54,152.88 L 142.88,152.26 L 143.87,151.1 L 144.52,150.57 L 145.17,150.03 L 146.49,149.19 L 147.15,148.88 L 147.82,148.57 L 149.08,148.13 L 149.68,148 L 150.28,147.87 L 151.65,147.72 L 152.43,147.7 L 152.2,148.12 L 151.42,148.16 L 149.77,148.74 L 148.9,149.27 L 148.03,149.81 L 146.52,151.51 L 145.88,152.68 L 145.42,153.53 L 145.02,154.98 L 145.09,155.57 L 145.16,156.17 L 145.66,157.07 L 146.09,157.37 L 146.38,157.56 L 147.31,157.87 L 147.96,157.99 L 147.96,157.99 z M 149.82,157.96 L 150.71,157.89 L 152.23,157.63 L 152.86,157.43 L 153.74,157.15 L 155.28,156.36 L 155.94,155.84 L 156.61,155.32 L 157.66,154.08 L 158.06,153.36 L 158.61,152.35 L 158.76,150.66 L 158.36,149.99 L 158.06,149.51 L 157.05,149.03 L 156.34,149.03 L 155.97,149.03 L 155.27,149.24 L 154.92,149.45 L 154.58,149.66 L 153.86,150.56 L 153.49,151.24 L 149.82,157.96 z"
     id="path106"
     style="fill:#000000;fill-rule:evenodd;stroke-width:1;stroke-miterlimit:4;stroke-dasharray:none" />
  <path
     d="M 86.14,187.12 L 86.14,185.82 L 86.53,183.58 L 86.93,182.64 L 87.32,181.7 L 88.37,180.29 L 89.02,179.83 L 89.52,179.47 L 90.57,179.1 L 91.11,179.1 L 91.98,179.1 L 93.56,180 L 94.25,180.89 L 95.13,182 L 96,184.99 L 96,186.89 L 96,188.21 L 95.61,190.46 L 95.23,191.39 L 94.85,192.32 L 93.88,193.66 L 93.28,194.08 L 92.69,194.5 L 91.55,194.92 L 91,194.92 L 89.91,194.92 L 88.09,193.63 L 87.36,192.35 L 86.75,191.26 L 86.14,188.65 L 86.14,187.12 L 86.14,187.12 z M 88.34,187.41 L 88.34,188.98 L 88.73,191.55 L 89.12,192.54 L 89.44,193.38 L 90.39,194.22 L 91.03,194.22 L 91.33,194.22 L 91.96,193.94 L 92.29,193.67 L 92.62,193.4 L 93.11,192.49 L 93.28,191.85 L 93.54,190.88 L 93.8,188.16 L 93.8,186.4 L 93.8,185.1 L 93.53,182.92 L 93.26,182.05 L 93.05,181.41 L 92.53,180.49 L 92.21,180.22 L 91.98,180.04 L 91.42,179.85 L 91.1,179.85 L 90.71,179.85 L 90.03,180.19 L 89.73,180.54 L 89.33,181 L 88.78,182.47 L 88.63,183.47 L 88.49,184.47 L 88.34,186.44 L 88.34,187.41 L 88.34,187.41 z"
     id="path108"
     style="fill:#000000;fill-rule:evenodd;stroke-width:1;stroke-miterlimit:4;stroke-dasharray:none" />
  <path
     d="M 70.56,168.95 L 70.56,167.64 L 70.95,165.4 L 71.35,164.46 L 71.74,163.52 L 72.78,162.12 L 73.44,161.66 L 73.94,161.29 L 74.99,160.93 L 75.53,160.93 L 76.4,160.93 L 77.98,161.82 L 78.67,162.71 L 79.55,163.82 L 80.42,166.82 L 80.42,168.71 L 80.42,170.04 L 80.03,172.29 L 79.65,173.21 L 79.27,174.14 L 78.29,175.49 L 77.7,175.9 L 77.11,176.32 L 75.97,176.74 L 75.41,176.74 L 74.32,176.74 L 72.51,175.45 L 71.78,174.17 L 71.17,173.08 L 70.56,170.47 L 70.56,168.95 L 70.56,168.95 z M 72.76,169.23 L 72.76,170.81 L 73.15,173.37 L 73.54,174.37 L 73.86,175.2 L 74.81,176.04 L 75.45,176.04 L 75.75,176.04 L 76.38,175.77 L 76.71,175.49 L 77.04,175.22 L 77.53,174.31 L 77.7,173.67 L 77.96,172.7 L 78.22,169.98 L 78.22,168.22 L 78.22,166.92 L 77.95,164.75 L 77.68,163.88 L 77.47,163.23 L 76.95,162.32 L 76.63,162.05 L 76.4,161.86 L 75.84,161.68 L 75.52,161.68 L 75.13,161.68 L 74.45,162.02 L 74.15,162.36 L 73.75,162.83 L 73.2,164.29 L 73.05,165.29 L 72.9,166.29 L 72.76,168.26 L 72.76,169.23 L 72.76,169.23 z"
     id="path110"
     style="fill:#000000;fill-rule:evenodd;stroke-width:1;stroke-miterlimit:4;stroke-dasharray:none" />
  <path
     d="M 168.41,168.69 L 168.39,166.97 M 168.39,166.97 L 168.33,165.26 M 168.33,165.26 L 168.24,163.55 M 168.24,163.55 L 168.11,161.85 M 168.11,161.85 L 167.94,160.14 M 167.94,160.14 L 167.73,158.44 M 167.73,158.44 L 167.49,156.75 M 167.49,156.75 L 167.21,155.06 M 167.21,155.06 L 166.89,153.38 M 166.89,153.38 L 166.53,151.7 M 166.53,151.7 L 166.14,150.03 M 166.14,150.03 L 165.71,148.38 M 165.71,148.38 L 165.25,146.73 M 165.25,146.73 L 164.75,145.09 M 164.75,145.09 L 164.21,143.47 M 164.21,143.47 L 163.64,141.85 M 163.64,141.85 L 163.03,140.25 M 163.03,140.25 L 162.39,138.66 M 162.39,138.66 L 161.71,137.09 M 161.71,137.09 L 161,135.53 M 161,135.53 L 160.26,133.99 M 160.26,133.99 L 159.48,132.47 M 159.48,132.47 L 158.66,130.96 M 158.66,130.96 L 157.82,129.47 M 157.82,129.47 L 156.94,128 M 156.94,128 L 156.03,126.55 M 156.03,126.55 L 155.09,125.12 M 155.09,125.12 L 154.12,123.71"
     id="path112"
     style="fill:none;stroke:#000000;stroke-width:1;stroke-miterlimit:4;stroke-dasharray:none" />
</svg>
